#!OML:ASF X:\für Bonn\!DataBase\2005_08_12_Daniel\c3d\Daniel.ASF
:FULLY-SPECIFIED
:DEGREES
256
root 1.57966 17.0789 -0.0332697 173.59 -5.27552 -178.042
lowerback 36.0014 -2.73004 8.12576
upperback 7.54069 -2.99072 0.721613
thorax -9.67409 -2.59199 -2.13045
lowerneck 1.6516 -2.60095 0.696963
upperneck 19.2112 -5.77772 1.89594
head 5.56966 -3.29108 0.169245
rclavicle 3.79679e-014 7.55382e-015
rhumerus -18.3009 -0.3075 -86.9987
rradius 25.2159
rwrist 4.9696
rhand -16.8933 13.1337
rfingers 7.12502
rthumb 9.3383 -16.6395
lclavicle 3.79679e-014 7.55382e-015
lhumerus -15.7587 10.4155 87.0526
lradius 41.7393
lwrist -9.03397
lhand -12.5703 -7.30772
lfingers 7.12502
lthumb 13.5074 22.2342
rfemur -12.2935 1.67267 22.1937
rtibia 39.4354
rfoot -28.4721 2.59161
rtoes -9.0861
lfemur -15.5264 -6.82282 -12.2328
ltibia 48.1424
lfoot -27.8236 3.38441
ltoes -13.4629
257
root 1.59603 17.102 -0.0934283 173.458 -5.07614 -178.056
lowerback 35.4873 -2.76222 8.06944
upperback 7.40058 -3.01684 0.705714
thorax -9.65162 -2.57529 -2.13093
lowerneck 2.00743 -2.38169 0.844083
upperneck 19.4055 -5.52823 1.73284
head 5.56106 -3.19854 0.10823
rclavicle -7.95139e-016 -3.57812e-015
rhumerus -19.0633 -0.406845 -87.3171
rradius 24.9799
rwrist 5.20909
rhand -16.7971 13.1285
rfingers 7.12502
rthumb 9.43114 -16.6404
lclavicle -7.95139e-016 -3.57812e-015
lhumerus -16.3515 10.7833 87.2711
lradius 41.9752
lwrist -8.78813
lhand -12.5951 -7.41403
lfingers 7.12502
lthumb 13.4835 22.1295
rfemur -11.5068 2.11235 22.3678
rtibia 38.7525
rfoot -28.5614 2.28177
rtoes -9.14854
lfemur -14.9167 -7.00732 -12.2721
ltibia 47.7943
lfoot -27.5644 3.85621
ltoes -13.8459
258
root 1.61236 17.1213 -0.152525 173.309 -4.87804 -178.048
lowerback 34.9667 -2.78389 8.00636
upperback 7.30842 -3.0481 0.730218
thorax -9.56714 -2.56576 -2.08447
lowerneck 2.37344 -4.42472 0.802007
upperneck 19.6267 -4.51825 1.04831
head 5.53449 -1.43938 0.0769763
rclavicle 8.74653e-015 -2.38542e-015
rhumerus -19.7009 -0.49344 -87.5604
rradius 24.7158
rwrist 5.46187
rhand -16.7727 13.1663
rfingers 7.12502
rthumb 9.45465 -16.6016
lclavicle 8.74653e-015 -2.38542e-015
lhumerus -16.87 11.2429 87.5275
lradius 42.2002
lwrist -8.64477
lhand -12.6196 -7.54983
lfingers 7.12502
lthumb 13.4599 21.9953
rfemur -10.7347 2.53059 22.5605
rtibia 38.118
rfoot -28.6549 1.99776
rtoes -9.04717
lfemur -14.3516 -7.17798 -12.2937
ltibia 47.535
lfoot -27.2788 4.34944
ltoes -14.1792
259
root 1.62814 17.1375 -0.212103 173.165 -4.66701 -178.079
lowerback 34.434 -2.78199 7.90312
upperback 7.25064 -3.07535 0.760321
thorax -9.43546 -2.55594 -2.01471
lowerneck 2.696 -4.2488 0.851563
upperneck 19.7471 -4.19286 0.876072
head 5.51236 -1.26751 0.0343053
rclavicle 4.96962e-015 1.98785e-014
rhumerus -20.2602 -0.539666 -87.7511
rradius 24.4582
rwrist 5.72744
rhand -16.7809 13.2784
rfingers 7.12502
rthumb 9.44671 -16.4898
lclavicle 4.96962e-015 1.98785e-014
lhumerus -17.2655 11.8059 87.8331
lradius 42.302
lwrist -8.65087
lhand -12.7382 -7.71339
lfingers 7.12502
lthumb 13.3456 21.8392
rfemur -10.0057 2.97433 22.7197
rtibia 37.5357
rfoot -28.7368 1.71655
rtoes -9.11258
lfemur -13.8285 -7.28924 -12.3535
ltibia 47.3454
lfoot -26.9205 4.81221
ltoes -14.6874
260
root 1.64321 17.1524 -0.270407 173.004 -4.48191 -178.087
lowerback 33.8389 -2.78983 7.82616
upperback 7.31108 -3.13028 0.790905
thorax -9.26771 -2.56213 -1.97084
lowerneck 2.97502 -4.06528 0.967114
upperneck 19.8373 -3.86873 0.714249
head 5.48767 -1.09399 -0.0177599
rclavicle 2.26615e-014 -1.55052e-014
rhumerus -20.7011 -0.606838 -87.9567
rradius 24.1377
rwrist 6.0551
rhand -16.8744 13.3481
rfingers 7.12502
rthumb 9.35658 -16.4242
lclavicle 2.26615e-014 -1.55052e-014
lhumerus -17.5705 12.3348 88.1033
lradius 42.3591
lwrist -8.72169
lhand -12.8439 -7.87597
lfingers 7.12502
lthumb 13.2437 21.6833
rfemur -9.28682 3.34774 22.8946
rtibia 36.9986
rfoot -28.8294 1.42933
rtoes -9.2727
lfemur -13.397 -7.41425 -12.3918
ltibia 47.2534
lfoot -26.5185 5.24944
ltoes -15.1727
261
root 1.65705 17.1661 -0.328209 172.839 -4.28901 -178.135
lowerback 33.3697 -2.79052 7.76654
upperback 7.27687 -3.15317 0.785529
thorax -9.13182 -2.55424 -1.96132
lowerneck 3.27755 -3.92896 1.12628
upperneck 19.9229 -3.60057 0.518027
head 5.45705 -0.945594 -0.0902402
rclavicle -4.07509e-014 2.38542e-015
rhumerus -21.1452 -0.830419 -88.1005
rradius 23.7739
rwrist 6.51247
rhand -17.0105 13.5294
rfingers 7.12502
rthumb 9.22521 -16.2488
lclavicle -4.07509e-014 2.38542e-015
lhumerus -17.8593 12.7981 88.3783
lradius 42.3608
lwrist -8.82489
lhand -12.9533 -8.0164
lfingers 7.12502
lthumb 13.1382 21.5497
rfemur -8.58858 3.74585 23.0279
rtibia 36.5162
rfoot -28.928 1.16343
rtoes -9.38516
lfemur -13.0088 -7.52423 -12.4871
ltibia 47.2547
lfoot -26.151 5.72936
ltoes -15.8347
262
root 1.66922 17.1767 -0.384086 172.678 -4.10833 -178.145
lowerback 32.9134 -2.81447 7.72815
upperback 7.24014 -3.19744 0.800524
thorax -9.00206 -2.55801 -1.9325
lowerneck 3.59443 -3.77912 1.26292
upperneck 20.0064 -3.31682 0.358472
head 5.42567 -0.788459 -0.147456
rclavicle -1.96797e-014 2.0276e-014
rhumerus -21.5352 -1.1263 -88.2117
rradius 23.3567
rwrist 7.00939
rhand -17.19 13.7494
rfingers 7.12502
rthumb 9.05198 -16.0364
lclavicle -1.96797e-014 2.0276e-014
lhumerus -18.1308 13.3749 88.6347
lradius 42.2799
lwrist -9.07356
lhand -13.0362 -8.25453
lfingers 7.12502
lthumb 13.0583 21.3167
rfemur -7.94168 4.05407 23.1881
rtibia 36.0802
rfoot -28.9935 0.927046
rtoes -9.50174
lfemur -12.7146 -7.61715 -12.531
ltibia 47.377
lfoot -25.7255 6.14593
ltoes -16.3467
